<svg width="220" height="109" viewBox="0 0 220 109" fill="none" xmlns="http://www.w3.org/2000/svg">
<path d="M208.289 85.156L134.907 85.1562C132.538 85.1987 130.426 88.58 130.321 89.2436C128.792 92.1956 125.21 99.1899 123.114 103.55C121.148 106.956 124.206 108.546 126.39 109H203.703C211.04 109 211.935 106.782 212.22 105.594C212.657 103.777 214.055 98.5087 216.151 91.9687C218.427 84.4547 212.215 85.156 208.289 85.156Z" fill="#36C2D7"/>
<path d="M152.168 98.3603C152.252 97.8014 151.952 97.3862 151.268 97.1145L150.804 96.9399C149.941 96.6333 149.328 96.2704 148.965 95.8512C148.602 95.4321 148.438 94.9451 148.472 94.3901C148.503 93.9089 148.663 93.4859 148.954 93.1211C149.248 92.7523 149.633 92.4691 150.111 92.2711C150.589 92.0732 151.097 91.9801 151.635 91.9917C152.154 92.0033 152.616 92.1198 153.021 92.3409C153.427 92.5583 153.736 92.863 153.95 93.255C154.164 93.6431 154.263 94.0874 154.248 94.588L152.839 94.5821C152.865 94.1398 152.767 93.7963 152.546 93.5518C152.328 93.3073 151.998 93.1793 151.555 93.1676C151.108 93.1599 150.729 93.2666 150.42 93.4878C150.115 93.709 149.936 94.0078 149.882 94.3842C149.806 94.8771 150.13 95.2652 150.855 95.5485L151.286 95.7058C152.16 96.024 152.771 96.3985 153.119 96.8292C153.467 97.2562 153.619 97.7625 153.577 98.3485C153.539 98.826 153.384 99.2431 153.113 99.6002C152.841 99.9534 152.466 100.227 151.984 100.421C151.507 100.615 150.979 100.708 150.404 100.7C149.857 100.696 149.36 100.58 148.914 100.351C148.471 100.122 148.13 99.8058 147.894 99.4023C147.656 98.9947 147.547 98.533 147.567 98.0168L148.982 98.0226C148.951 98.5038 149.069 98.8745 149.331 99.1345C149.595 99.3944 149.973 99.5284 150.466 99.5361C150.924 99.544 151.306 99.4449 151.611 99.2393C151.921 99.0335 152.107 98.7405 152.168 98.3603ZM159.464 96.8001H156.139L155.694 99.408H159.578L159.377 100.584H154.077L155.521 92.1081H160.786L160.581 93.2957H156.736L156.336 95.6359H159.664L159.464 96.8001ZM163.734 97.3182H162.14L161.58 100.584H160.164L161.613 92.1081L164.243 92.114C165.149 92.114 165.842 92.3352 166.323 92.7776C166.805 93.2201 167.012 93.8351 166.947 94.623C166.906 95.1701 166.726 95.6456 166.409 96.0491C166.093 96.4489 165.647 96.7633 165.074 96.9922L166.307 100.497L166.3 100.584H164.799L163.734 97.3182ZM162.335 96.1365L163.705 96.1481C164.197 96.1481 164.609 96.0181 164.937 95.7581C165.269 95.4943 165.463 95.1371 165.521 94.6871C165.578 94.2485 165.502 93.9128 165.292 93.6799C165.082 93.4432 164.763 93.317 164.335 93.3016L162.822 93.2957L162.335 96.1365ZM169.975 98.7269L173.046 92.1081H174.65L170.433 100.584H169.064L167.465 92.1081H168.967L169.975 98.7269ZM175.305 100.584H173.895L175.345 92.1081H176.754L175.305 100.584ZM183.299 97.8189C183.158 98.7037 182.768 99.41 182.126 99.9378C181.484 100.462 180.703 100.716 179.782 100.7C179.252 100.689 178.785 100.561 178.383 100.316C177.987 100.072 177.675 99.7166 177.45 99.251C177.225 98.7814 177.098 98.2516 177.072 97.6617C177.048 97.2193 177.102 96.6177 177.232 95.8571C177.362 95.0925 177.61 94.4075 177.977 93.8022C178.347 93.1968 178.8 92.7407 179.334 92.4342C179.874 92.1276 180.472 91.9801 181.128 91.9917C181.957 92.0073 182.612 92.273 183.094 92.7892C183.578 93.3016 183.836 94.0097 183.867 94.914H182.464C182.445 94.3086 182.318 93.872 182.086 93.6042C181.857 93.3326 181.514 93.1909 181.06 93.1793C180.438 93.1599 179.916 93.3868 179.496 93.8604C179.075 94.3339 178.793 95.0227 178.647 95.927L178.532 96.7012L178.481 97.2949C178.451 97.6946 178.477 98.0711 178.561 98.4243C178.65 98.7735 178.802 99.0413 179.02 99.2277C179.238 99.41 179.514 99.5071 179.851 99.5187C180.917 99.5613 181.6 98.9986 181.902 97.8306L183.299 97.8189ZM189.151 96.8001H185.828L185.381 99.408H189.266L189.066 100.584H183.766L185.21 92.1081H190.475L190.269 93.2957H186.425L186.023 95.6359H189.353L189.151 96.8001ZM194.465 98.3603C194.549 97.8014 194.249 97.3862 193.565 97.1145L193.101 96.9399C192.238 96.6333 191.625 96.2704 191.262 95.8512C190.899 95.4321 190.735 94.9451 190.769 94.3901C190.799 93.9089 190.96 93.4859 191.251 93.1211C191.545 92.7523 191.93 92.4691 192.408 92.2711C192.885 92.0732 193.393 91.9801 193.932 91.9917C194.451 92.0033 194.913 92.1198 195.319 92.3409C195.724 92.5583 196.033 92.863 196.247 93.255C196.461 93.6431 196.56 94.0874 196.545 94.588L195.136 94.5821C195.162 94.1398 195.065 93.7963 194.843 93.5518C194.625 93.3073 194.295 93.1793 193.852 93.1676C193.404 93.1599 193.026 93.2666 192.717 93.4878C192.412 93.709 192.232 94.0078 192.179 94.3842C192.103 94.8771 192.427 95.2652 193.153 95.5485L193.583 95.7058C194.458 96.024 195.068 96.3985 195.416 96.8292C195.764 97.2562 195.917 97.7625 195.874 98.3485C195.835 98.826 195.681 99.2431 195.41 99.6002C195.138 99.9534 194.763 100.227 194.281 100.421C193.803 100.615 193.277 100.708 192.7 100.7C192.154 100.696 191.657 100.58 191.211 100.351C190.768 100.122 190.427 99.8058 190.191 99.4023C189.953 98.9947 189.846 98.533 189.863 98.0168L191.278 98.0226C191.248 98.5038 191.365 98.8745 191.629 99.1345C191.893 99.3944 192.271 99.5284 192.763 99.5361C193.221 99.544 193.603 99.4449 193.91 99.2393C194.219 99.0335 194.404 98.7405 194.465 98.3603Z" fill="white"/>
<path d="M70.65 43.9759L70.9413 47.9536C73.4218 44.8635 76.7759 43.3185 81.0037 43.3185C85.512 43.3185 88.6072 45.1265 90.2897 48.7425C92.7486 45.1265 96.2538 43.3185 100.805 43.3185C104.602 43.3185 107.427 44.4471 109.282 46.7044C111.137 48.9399 112.065 52.3148 112.065 56.8294V79.5449H102.682V56.8623C102.682 54.846 102.293 53.3777 101.517 52.4573C100.74 51.5149 99.3707 51.0437 97.4078 51.0437C94.6037 51.0437 92.6623 52.4024 91.5839 55.12L91.6162 79.5449H82.2656V56.8951C82.2656 54.8351 81.8665 53.3448 81.0684 52.4243C80.2704 51.5039 78.9114 51.0437 76.9917 51.0437C74.3386 51.0437 72.4188 52.1613 71.2324 54.3968V79.5449H61.8818V43.9759H70.65ZM151.05 39.6696H136.619V79.5449H126.912V39.6696H112.676V31.6814H151.05V39.6696ZM167.805 80.2022C162.672 80.2022 158.486 78.6024 155.252 75.4029C152.037 72.2031 150.43 67.9405 150.43 62.6151V61.6946C150.43 58.1224 151.11 54.9337 152.469 52.1285C153.827 49.3014 155.747 47.1318 158.228 45.6196C160.73 44.0855 163.578 43.3185 166.769 43.3185C171.558 43.3185 175.323 44.8526 178.062 47.9207C180.823 50.9889 182.203 55.3392 182.203 60.9714V64.8504H159.911C160.212 67.1736 161.119 69.0364 162.628 70.4389C164.16 71.8415 166.09 72.5428 168.42 72.5428C172.022 72.5428 174.837 71.217 176.865 68.5652L181.459 73.792C180.056 75.8082 178.158 77.3861 175.765 78.5257C173.371 79.6435 170.717 80.2022 167.805 80.2022ZM166.738 51.0108C164.882 51.0108 163.372 51.6464 162.208 52.9175C161.065 54.1886 160.331 56.0075 160.008 58.3744H173.015V57.6184C172.972 55.5145 172.41 53.8927 171.332 52.7531C170.254 51.5916 168.721 51.0108 166.738 51.0108ZM200.257 65.2778L196.893 68.6966V79.5449H187.541V29.0515H196.893V57.0266L198.704 54.6598L207.666 43.9759H218.894L206.243 58.8018L219.994 79.5449H209.252L200.257 65.2778Z" fill="#36C2D7"/>
<path d="M1 22.0387C1 18.1114 5.83172 17.8312 5.83172 18.5322C4.45123 18.5322 3.07073 20.6364 5.14147 22.0387C8.36261 23.9087 23.0293 32.0234 34.822 38.8701C44.4854 44.4804 44.7156 44.4802 44.4854 45.1814V87.9605C44.4854 97.7787 43.7952 97.0774 43.1049 97.0774C42.5527 97.0774 14.1147 83.7527 1.69025 76.0385C1.69025 59.9087 1 25.9659 1 22.0387Z" fill="#36C2D7" stroke="#36C2D7" stroke-width="0.5"/>
<path d="M42.0697 1.38666L11.6988 17.5164C9.628 18.919 8.93777 19.62 12.3891 21.7241C14.92 23.1267 22.6048 27.3345 33.0965 32.9449C44.3426 38.9586 44.1403 37.1527 44.1404 35.0488V4.89314C44.1403 -0.717432 42.7598 1.38626 42.0697 1.38666Z" fill="#167F9F" stroke="#167F9F" stroke-width="0.5"/>
</svg>
